<mxfile host="app.diagrams.net" modified="2023-10-05T16:14:53.553Z" agent="Mozilla/5.0 (Windows NT 10.0; Win64; x64) AppleWebKit/537.36 (KHTML, like Gecko) Chrome/117.0.0.0 Safari/537.36 Edg/117.0.2045.36" etag="QHr_YJrqUeBiPX6__R2U" version="21.7.4" type="device">
  <diagram name="Página-1" id="dyjsVPenCSWaXX5ZF9Kb">
    <mxGraphModel dx="2026" dy="759" grid="1" gridSize="10" guides="1" tooltips="1" connect="1" arrows="1" fold="1" page="1" pageScale="1" pageWidth="827" pageHeight="1169" math="0" shadow="0">
      <root>
        <mxCell id="0" />
        <mxCell id="1" parent="0" />
        <mxCell id="huEDN3vt5Fq_p-cqIxva-1" value="Instância Google Cloud" style="whiteSpace=wrap;html=1;aspect=fixed;" vertex="1" parent="1">
          <mxGeometry x="70" y="90" width="270" height="270" as="geometry" />
        </mxCell>
        <mxCell id="huEDN3vt5Fq_p-cqIxva-2" value="dados_financeiros" style="rounded=1;whiteSpace=wrap;html=1;" vertex="1" parent="1">
          <mxGeometry x="145" y="260" width="120" height="60" as="geometry" />
        </mxCell>
        <mxCell id="huEDN3vt5Fq_p-cqIxva-3" value="Power BI" style="rounded=1;whiteSpace=wrap;html=1;" vertex="1" parent="1">
          <mxGeometry x="530" y="150" width="230" height="260" as="geometry" />
        </mxCell>
        <mxCell id="huEDN3vt5Fq_p-cqIxva-4" value="" style="endArrow=classic;html=1;rounded=0;exitX=1;exitY=0.5;exitDx=0;exitDy=0;" edge="1" parent="1" source="huEDN3vt5Fq_p-cqIxva-2">
          <mxGeometry width="50" height="50" relative="1" as="geometry">
            <mxPoint x="390" y="420" as="sourcePoint" />
            <mxPoint x="530" y="240" as="targetPoint" />
            <Array as="points">
              <mxPoint x="400" y="250" />
            </Array>
          </mxGeometry>
        </mxCell>
        <mxCell id="huEDN3vt5Fq_p-cqIxva-5" value="Power Query" style="text;html=1;strokeColor=none;fillColor=none;align=center;verticalAlign=middle;whiteSpace=wrap;rounded=0;" vertex="1" parent="1">
          <mxGeometry x="410" y="210" width="60" height="30" as="geometry" />
        </mxCell>
      </root>
    </mxGraphModel>
  </diagram>
</mxfile>
